<?xml version="1.0" standalone="no"?>
<!DOCTYPE svg PUBLIC "-//W3C//DTD SVG 20010904//EN"
 "http://www.w3.org/TR/2001/REC-SVG-20010904/DTD/svg10.dtd">
<svg version="1.0" xmlns="http://www.w3.org/2000/svg"
 width="225.000000pt" height="225.000000pt" viewBox="0 0 225.000000 225.000000"
 preserveAspectRatio="xMidYMid meet">
<metadata>
Created by potrace 1.14, written by Peter Selinger 2001-2017
</metadata>
<g transform="translate(0.000000,225.000000) scale(0.100000,-0.100000)"
fill="#000000" stroke="none">
<path d="M357 2103 c-4 -3 -7 -28 -7 -55 0 -52 17 -71 45 -48 15 13 20 65 9
94 -6 16 -35 22 -47 9z"/>
<path d="M106 1995 c-8 -22 52 -87 78 -83 31 5 30 31 -3 66 -31 34 -65 42 -75
17z"/>
<path d="M572 1977 c-34 -35 -35 -67 -3 -67 25 0 85 65 78 84 -10 26 -41 18
-75 -17z"/>
<path d="M1398 1849 c-183 -27 -408 -162 -547 -329 l-45 -53 42 7 c109 17 274
-41 373 -132 l57 -52 43 85 c87 175 236 336 370 402 l62 31 -54 16 c-109 33
-198 40 -301 25z"/>
<path d="M1789 1728 c23 -67 25 -87 25 -233 0 -162 -3 -181 -60 -372 -6 -22
-4 -23 68 -23 127 0 243 -46 334 -132 l52 -49 7 54 c4 30 2 103 -4 161 -33
306 -161 518 -382 636 -31 16 -59 30 -61 30 -3 0 7 -33 21 -72z"/>
<path d="M12 1758 c-22 -22 5 -48 52 -48 46 0 72 19 62 45 -7 18 -96 21 -114
3z"/>
<path d="M632 1758 c-22 -22 5 -48 52 -48 46 0 72 19 62 45 -7 18 -96 21 -114
3z"/>
<path d="M131 1534 c-26 -28 -30 -39 -20 -50 18 -21 32 -17 68 20 21 22 31 41
28 50 -10 27 -43 18 -76 -20z"/>
<path d="M543 1554 c-8 -21 56 -86 82 -82 31 5 29 33 -4 67 -33 33 -68 40 -78
15z"/>
<path d="M357 1483 c-4 -3 -7 -28 -7 -55 0 -52 17 -71 45 -48 15 13 20 65 9
94 -6 16 -35 22 -47 9z"/>
<path d="M1440 1224 c-11 -25 -20 -47 -20 -50 0 -2 -54 -139 -120 -305 -66
-167 -117 -306 -113 -310 5 -5 39 -9 78 -11 l70 -3 128 320 c71 176 131 328
134 337 4 14 -7 24 -48 43 -76 35 -86 33 -109 -21z"/>
<path d="M101 274 c-84 -30 -109 -57 -77 -83 11 -10 24 -7 58 11 32 17 60 22
113 23 63 0 79 -4 157 -44 84 -42 89 -43 165 -40 69 4 89 9 154 44 65 35 82
39 144 40 63 0 79 -4 157 -44 86 -43 88 -43 171 -39 74 4 91 8 153 43 62 36
76 40 140 40 63 0 78 -4 145 -39 65 -34 85 -40 157 -44 82 -4 84 -4 170 39 78
40 94 44 157 44 53 -1 81 -6 114 -24 42 -22 45 -22 57 -6 19 25 8 40 -48 66
-41 19 -68 24 -132 24 -75 0 -87 -4 -165 -43 -116 -58 -166 -58 -282 1 -79 40
-89 42 -169 42 -80 0 -90 -2 -169 -42 -116 -59 -165 -59 -282 -1 -78 39 -90
42 -169 42 -81 1 -89 -1 -172 -43 -81 -40 -92 -43 -150 -39 -49 3 -80 13 -138
42 -90 47 -184 58 -259 30z"/>
</g>
</svg>
